<svg xmlns="http://www.w3.org/2000/svg" xmlns:xlink="http://www.w3.org/1999/xlink" preserveAspectRatio="xMidYMid meet" version="1.0" viewBox="40.0 16.1 432.0 479.9" zoomAndPan="magnify" style="fill: rgb(12, 67, 77);" original_string_length="1539"><g><g data-name="Glyph" id="__id4_st97isxzv"><rect height="64" rx="16" width="64" x="80" y="184" style="fill: inherit;"/><rect height="64" rx="16" width="64" x="176" y="184" style="fill: inherit;"/><rect height="64" rx="16" width="64" x="272" y="184" style="fill: inherit;"/><rect height="64" rx="16" width="64" x="368" y="184" style="fill: inherit;"/><rect height="64" rx="16" width="64" x="80" y="272" style="fill: inherit;"/><rect height="64" rx="16" width="64" x="176" y="268" style="fill: inherit;"/><rect height="64" rx="16" width="64" x="272" y="268" style="fill: inherit;"/><rect height="64" rx="16" width="64" x="368" y="268" style="fill: inherit;"/><rect height="64" rx="16" width="64" x="80" y="352" style="fill: inherit;"/><rect height="64" rx="16" width="64" x="176" y="352" style="fill: inherit;"/><rect height="64" rx="16" width="64" x="272" y="352" style="fill: inherit;"/><path d="M432,48H408V44a28,28,0,0,0-56,0v4H284V44a28,28,0,0,0-56,0v4H160V44a28,28,0,0,0-56,0v4H80A40,40,0,0,0,40,88V456a40,40,0,0,0,40,40H432a40,40,0,0,0,40-40V88A40,40,0,0,0,432,48Zm-64-4a12,12,0,0,1,24,0V76a12,12,0,0,1-24,0ZM244,44a12,12,0,0,1,24,0V76a12,12,0,0,1-24,0ZM120,44a12,12,0,0,1,24,0V76a12,12,0,0,1-24,0ZM384,436.72V400a24.07,24.07,0,0,1,24-24h36.72ZM456,352a8,8,0,0,1-8,8H408a40,40,0,0,0-40,40v40a8,8,0,0,1-8,8l-280-.48a24,24,0,0,1-24-24V160H456Z" style="fill: inherit;"/></g></g></svg>