<svg xmlns="http://www.w3.org/2000/svg" xmlns:xlink="http://www.w3.org/1999/xlink" preserveAspectRatio="xMidYMid meet" version="1.0" viewBox="38.7 47.0 124.3 107.1" zoomAndPan="magnify" style="fill: rgb(0, 0, 0);" original_string_length="1871"><g fill-rule="evenodd" style="fill: none;"><g style="fill: rgb(12, 67, 77);"><g id="__id3_st97isxzv"><path d="M29.1287316,54.1046435 C29.1254484,54.0128971 29.1219878,53.9204639 29.1183485,53.82734 C28.1395637,28.7819559 49.5509579,10.1647454 71.5510035,10.164744 C93.551049,10.1647426 114.545479,27.5029652 114.545485,53.8273414 C114.545487,66.0080836 108.888827,77.4516976 101.431316,84.7803626 C92.7720479,93.2900211 81.5672936,96.722235 72.1227926,96.7222351 C54.5445242,96.7222352 42.3665439,84.2984001 42.3665439,84.2984001 L34.5419805,91.6548478 C34.5419805,91.6548478 42.4463113,98.6759995 48.9456274,101.683106 C55.4449436,104.690213 57.3480523,106.510784 71.5510035,106.827805 C83.749546,107.100086 95.1358845,101.649607 102.539467,96.7222329 C123.381751,82.8508787 125.000005,63.041777 125,53.9648156 C124.999995,44.8878542 123.191082,27.0707193 105.836063,12.3465993 C97.720106,5.46096443 87.163198,2.25839982e-07 70.5507572,0 C55.0572025,-2.10629138e-07 43.2727762,7.13355247 35.5866054,13.8325782 C17.408623,29.6759381 18.1493678,53.9648156 18.1493678,53.9648156 C18.1493678,53.9648156 18.1727623,54.013587 18.2173961,54.1046434 L0.689398109,54.1046434 L24.3023264,78.4764847 L48.6780987,54.1046434 L29.1287316,54.1046434 Z" transform="translate(38 47)" style="fill: inherit;"/><path d="M66.7337158,31.4111491 L66.7337158,59.8816241 L92.0367489,75.2499462 L96.3403735,69.2610837 L75.0654463,56.3715298 L75.0654463,31.4111491 L66.7337158,31.4111491 Z" transform="translate(38 47)" style="fill: inherit;"/></g></g></g></svg>